<svg width="33" height="33" viewBox="0 0 33 33" fill="none" xmlns="http://www.w3.org/2000/svg">
<g filter="url(#filter0_d_616_401)">
<path d="M26.6267 6.62752L19.4345 1.04019C17.6513 -0.346731 14.9468 -0.346731 13.1636 1.04019L5.97141 6.62752C5.36711 7.10304 4.86187 7.71725 4.51514 8.42062C4.17832 9.11408 4 9.8967 4 10.6595V20.368C4 21.4973 4.43589 22.5573 5.23833 23.3499C6.03085 24.1424 7.09086 24.5882 8.22021 24.5882H24.3977C25.5072 24.5882 26.597 24.1424 27.3796 23.3499C28.1721 22.5573 28.6179 21.4973 28.6179 20.368V10.6595C28.608 9.07445 27.8848 7.60827 26.6267 6.62752Z" fill="#7065F0"/>
<path d="M22.6839 11.076C22.0994 11.0265 21.5644 11.2841 21.2276 11.71C21.1385 11.819 19.1175 14.2957 16.4526 14.3353C14.7487 14.365 13.0448 13.3644 11.3606 11.3831C11.0833 11.0463 10.687 10.8284 10.2214 10.7788C9.30997 10.6996 8.49763 11.3732 8.41838 12.2846C8.37875 12.7502 8.53726 13.196 8.81464 13.523C11.1823 16.3166 13.7779 17.7134 16.5319 17.654C20.6431 17.5748 23.4665 14.2164 23.8033 13.7805C23.8132 13.7706 23.8231 13.7607 23.8331 13.7508L23.843 13.7409C24.0312 13.4932 24.16 13.196 24.1897 12.8691C24.2689 11.9676 23.5953 11.1553 22.6839 11.076Z" fill="white"/>
</g>
<defs>
<filter id="filter0_d_616_401" x="0" y="0" width="32.6179" height="32.5882" filterUnits="userSpaceOnUse" color-interpolation-filters="sRGB">
<feFlood flood-opacity="0" result="BackgroundImageFix"/>
<feColorMatrix in="SourceAlpha" type="matrix" values="0 0 0 0 0 0 0 0 0 0 0 0 0 0 0 0 0 0 127 0" result="hardAlpha"/>
<feOffset dy="4"/>
<feGaussianBlur stdDeviation="2"/>
<feComposite in2="hardAlpha" operator="out"/>
<feColorMatrix type="matrix" values="0 0 0 0 0 0 0 0 0 0 0 0 0 0 0 0 0 0 0.25 0"/>
<feBlend mode="normal" in2="BackgroundImageFix" result="effect1_dropShadow_616_401"/>
<feBlend mode="normal" in="SourceGraphic" in2="effect1_dropShadow_616_401" result="shape"/>
</filter>
</defs>
</svg>
