<svg width="103" height="30" viewBox="4 0 103 30" fill="none" xmlns="http://www.w3.org/2000/svg">
<path d="M95.1801 29.8396C98.1422 29.8396 99.6084 28.5022 101.075 24.9556L107.167 10.3236C107.266 10.0957 107.395 9.54096 107.395 9.15461C107.395 7.84693 106.315 6.87609 105.047 6.87609C103.779 6.87609 103.056 7.72806 102.67 8.76825L99.0239 18.8829L95.2396 8.71872C94.8136 7.54974 94.1003 6.86618 92.862 6.86618C91.4949 6.86618 90.415 7.84693 90.415 9.24377C90.415 9.57068 90.5438 10.0561 90.6726 10.383L96.6364 24.2027L96.4779 24.5891C96.0222 25.4708 95.5962 25.6293 94.7145 25.6293C94.3579 25.6293 94.1003 25.5599 93.6743 25.4312C93.4762 25.3618 93.2483 25.3024 92.862 25.3024C91.8515 25.3024 90.9104 26.1147 90.9104 27.3233C90.9104 28.5319 91.7623 29.1164 92.4756 29.374C93.2979 29.6712 94.0706 29.8396 95.1801 29.8396Z" fill="#7065F0"/>
<path d="M73.0587 22.6374C73.0587 23.8757 74.0692 24.7871 75.3769 24.7871C76.2586 24.7871 76.9421 24.2323 77.5266 23.519L81.0434 18.8927L84.5603 23.519C85.2141 24.3314 85.8977 24.7871 86.8784 24.7871C88.1168 24.7871 89.1569 23.9054 89.1569 22.5086C89.1569 21.8547 88.8994 21.2702 88.3446 20.6164L83.9758 15.5938L88.2158 10.6405C88.6022 10.155 88.8994 9.62998 88.8994 8.94642C88.8994 7.7081 87.8889 6.79669 86.5812 6.79669C85.6995 6.79669 85.016 7.35146 84.4315 8.06474L81.1425 12.3642L77.913 8.06474C77.2591 7.2524 76.5756 6.79669 75.5948 6.79669C74.3565 6.79669 73.3163 7.67838 73.3163 9.07521C73.3163 9.72905 73.5739 10.3135 74.1286 10.9674L78.2002 15.6631L73.7423 20.9433C73.3163 21.4287 73.0587 21.9538 73.0587 22.6374Z" fill="#7065F0"/>
<path d="M72.5237 15.1379C72.5237 11.522 69.948 6.7272 64.113 6.7272C59.0309 6.7272 55.4744 10.8285 55.4744 15.8215V15.8908C55.4744 21.2305 59.3479 24.9157 64.5984 24.9157C67.1444 24.9157 69.1257 24.1034 70.6613 22.7957C71.0179 22.4688 71.3151 21.9834 71.3151 21.3295C71.3151 20.22 70.5027 19.3779 69.3932 19.3779C68.8682 19.3779 68.5412 19.5067 68.1846 19.7643C67.1741 20.5172 66.0349 20.9333 64.6678 20.9333C62.4487 20.9333 60.8834 19.7643 60.398 17.5155H70.2055C71.5132 17.5155 72.5237 16.5744 72.5237 15.1379ZM60.3386 14.4246C60.7249 12.1758 62.0623 10.7097 64.1229 10.7097C66.2132 10.7097 67.511 12.2056 67.8081 14.4246H60.3386Z" fill="#7065F0"/>
<path d="M48.4607 22.2406C48.4607 23.6077 49.5702 24.7173 50.9373 24.7173C52.3045 24.7173 53.414 23.6077 53.414 22.2406V3.02179C53.414 1.65468 52.3045 0.545135 50.9373 0.545135C49.5702 0.545135 48.4607 1.65468 48.4607 3.02179V22.2406Z" fill="#7065F0"/>
<path d="M37.0684 22.241C37.0684 23.6082 38.178 24.7177 39.5451 24.7177C40.9122 24.7177 42.0217 23.6082 42.0217 22.241V11.2942H44.112C45.2513 11.2942 46.1627 10.4126 46.1627 9.2733C46.1627 8.13404 45.2513 7.25235 44.112 7.25235H41.9623V6.56879C41.9623 5.26112 42.6161 4.67663 43.7554 4.67663H44.1814C45.2909 4.67663 46.2023 3.7355 46.2023 2.62596C46.2023 1.51642 45.3503 0.773429 44.5083 0.634737C43.9535 0.535671 43.27 0.505951 42.4873 0.505951C40.724 0.505951 39.3965 0.961655 38.4752 1.87306C37.5638 2.78447 37.0783 4.19121 37.0783 6.11309V7.22263H36.8802C35.7409 7.22263 34.8295 8.13404 34.8295 9.2733C34.8295 10.4126 35.7409 11.2942 36.8802 11.2942H37.0783V22.241H37.0684Z" fill="#7065F0"/>
<g filter="url(#filter0_d_1_2253)">
<path d="M26.6267 6.62752L19.4345 1.04019C17.6513 -0.346731 14.9468 -0.346731 13.1636 1.04019L5.97141 6.62752C5.36711 7.10304 4.86187 7.71725 4.51514 8.42061C4.17832 9.11408 4 9.8967 4 10.6595V20.368C4 21.4973 4.43589 22.5573 5.23833 23.3499C6.03085 24.1424 7.09086 24.5882 8.22021 24.5882H24.3977C25.5072 24.5882 26.597 24.1424 27.3796 23.3499C28.1721 22.5573 28.6179 21.4973 28.6179 20.368V10.6595C28.608 9.07445 27.8848 7.60827 26.6267 6.62752Z" fill="#7065F0"/>
<path d="M22.6839 11.076C22.0994 11.0265 21.5644 11.2841 21.2276 11.71C21.1385 11.819 19.1175 14.2957 16.4526 14.3353C14.7487 14.365 13.0448 13.3644 11.3606 11.3831C11.0833 11.0463 10.687 10.8284 10.2214 10.7788C9.30997 10.6996 8.49763 11.3732 8.41838 12.2846C8.37875 12.7502 8.53726 13.196 8.81464 13.523C11.1823 16.3166 13.7779 17.7134 16.5319 17.654C20.6431 17.5748 23.4665 14.2164 23.8033 13.7805C23.8132 13.7706 23.8232 13.7607 23.8331 13.7508L23.843 13.7409C24.0312 13.4932 24.16 13.196 24.1897 12.8691C24.2689 11.9676 23.5953 11.1553 22.6839 11.076Z" fill="white"/>
</g>
<defs>
<filter id="filter0_d_1_2253" x="0" y="0" width="32.6179" height="32.5882" filterUnits="userSpaceOnUse" color-interpolation-filters="sRGB">
<feFlood flood-opacity="0" result="BackgroundImageFix"/>
<feColorMatrix in="SourceAlpha" type="matrix" values="0 0 0 0 0 0 0 0 0 0 0 0 0 0 0 0 0 0 127 0" result="hardAlpha"/>
<feOffset dy="4"/>
<feGaussianBlur stdDeviation="2"/>
<feComposite in2="hardAlpha" operator="out"/>
<feColorMatrix type="matrix" values="0 0 0 0 0 0 0 0 0 0 0 0 0 0 0 0 0 0 0.25 0"/>
<feBlend mode="normal" in2="BackgroundImageFix" result="effect1_dropShadow_1_2253"/>
<feBlend mode="normal" in="SourceGraphic" in2="effect1_dropShadow_1_2253" result="shape"/>
</filter>
</defs>
</svg>
